<svg width="400" height="102" viewBox="0 0 400 102" fill="none" xmlns="http://www.w3.org/2000/svg">
<rect x="0.5" y="0.5" width="398.852" height="100.3" rx="4.5" stroke="white" stroke-dasharray="10 5"/>
<path d="M20 30C20 24.4771 24.4772 20 30 20H71.3C76.8229 20 81.3 24.4772 81.3 30V71.3C81.3 76.8229 76.8228 81.3 71.3 81.3H30C24.4771 81.3 20 76.8228 20 71.3V30Z" fill="#3E4AB8"/>
<path d="M37.75 25L25 45.4H34.5625V70.9H53.6875L47.3125 60.7H40.9375V45.4H50.5L37.75 25ZM47.3125 30.1L53.6875 40.3H60.0625V55.6H50.5L63.25 76L76 55.6H66.4375V30.1H47.3125Z" fill="white"/>
<path d="M91.626 77.9999L88.378 68.1999H90.268L93.166 77.0619H92.228L95.238 68.1999H96.918L99.844 77.0619H98.934L101.902 68.1999H103.638L100.39 77.9999H98.458L95.784 70.0059H96.288L93.572 77.9999H91.626Z" fill="#3E4AB8"/>
<path d="M109.4 70.4399C109.997 70.4399 110.529 70.5566 110.996 70.7899C111.472 71.0232 111.845 71.3826 112.116 71.8679C112.386 72.3439 112.522 72.9599 112.522 73.7159V77.9999H110.772V73.9399C110.772 73.2772 110.613 72.7826 110.296 72.4559C109.988 72.1292 109.554 71.9659 108.994 71.9659C108.583 71.9659 108.219 72.0499 107.902 72.2179C107.584 72.3859 107.337 72.6379 107.16 72.9739C106.992 73.3006 106.908 73.7159 106.908 74.2199V77.9999H105.158V67.6119H106.908V72.5399L106.53 71.9239C106.791 71.4479 107.169 71.0839 107.664 70.8319C108.168 70.5706 108.746 70.4399 109.4 70.4399Z" fill="#3E4AB8"/>
<path d="M118.269 78.0979C117.439 78.0979 116.711 77.9346 116.085 77.6079C115.469 77.2719 114.989 76.8146 114.643 76.2359C114.307 75.6572 114.139 74.9992 114.139 74.2619C114.139 73.5152 114.303 72.8572 114.629 72.2879C114.965 71.7092 115.423 71.2566 116.001 70.9299C116.589 70.6032 117.257 70.4399 118.003 70.4399C118.731 70.4399 119.38 70.5986 119.949 70.9159C120.519 71.2332 120.967 71.6812 121.293 72.2599C121.62 72.8386 121.783 73.5199 121.783 74.3039C121.783 74.3786 121.779 74.4626 121.769 74.5559C121.769 74.6492 121.765 74.7379 121.755 74.8219H115.525V73.6599H120.831L120.145 74.0239C120.155 73.5946 120.066 73.2166 119.879 72.8899C119.693 72.5632 119.436 72.3066 119.109 72.1199C118.792 71.9332 118.423 71.8399 118.003 71.8399C117.574 71.8399 117.196 71.9332 116.869 72.1199C116.552 72.3066 116.3 72.5679 116.113 72.9039C115.936 73.2306 115.847 73.6179 115.847 74.0659V74.3459C115.847 74.7939 115.95 75.1906 116.155 75.5359C116.361 75.8812 116.65 76.1472 117.023 76.3339C117.397 76.5206 117.826 76.6139 118.311 76.6139C118.731 76.6139 119.109 76.5486 119.445 76.4179C119.781 76.2872 120.08 76.0819 120.341 75.8019L121.279 76.8799C120.943 77.2719 120.519 77.5752 120.005 77.7899C119.501 77.9952 118.923 78.0979 118.269 78.0979Z" fill="#3E4AB8"/>
<path d="M123.464 77.9999V70.5239H125.13V72.5819L124.934 71.9799C125.158 71.4759 125.508 71.0932 125.984 70.8319C126.47 70.5706 127.072 70.4399 127.79 70.4399V72.1059C127.716 72.0872 127.646 72.0779 127.58 72.0779C127.515 72.0686 127.45 72.0639 127.384 72.0639C126.722 72.0639 126.194 72.2599 125.802 72.6519C125.41 73.0346 125.214 73.6086 125.214 74.3739V77.9999H123.464Z" fill="#3E4AB8"/>
<path d="M132.721 78.0979C131.89 78.0979 131.162 77.9346 130.537 77.6079C129.921 77.2719 129.44 76.8146 129.095 76.2359C128.759 75.6572 128.591 74.9992 128.591 74.2619C128.591 73.5152 128.754 72.8572 129.081 72.2879C129.417 71.7092 129.874 71.2566 130.453 70.9299C131.041 70.6032 131.708 70.4399 132.455 70.4399C133.183 70.4399 133.831 70.5986 134.401 70.9159C134.97 71.2332 135.418 71.6812 135.745 72.2599C136.071 72.8386 136.235 73.5199 136.235 74.3039C136.235 74.3786 136.23 74.4626 136.221 74.5559C136.221 74.6492 136.216 74.7379 136.207 74.8219H129.977V73.6599H135.283L134.597 74.0239C134.606 73.5946 134.517 73.2166 134.331 72.8899C134.144 72.5632 133.887 72.3066 133.561 72.1199C133.243 71.9332 132.875 71.8399 132.455 71.8399C132.025 71.8399 131.647 71.9332 131.321 72.1199C131.003 72.3066 130.751 72.5679 130.565 72.9039C130.387 73.2306 130.299 73.6179 130.299 74.0659V74.3459C130.299 74.7939 130.401 75.1906 130.607 75.5359C130.812 75.8812 131.101 76.1472 131.475 76.3339C131.848 76.5206 132.277 76.6139 132.763 76.6139C133.183 76.6139 133.561 76.5486 133.897 76.4179C134.233 76.2872 134.531 76.0819 134.793 75.8019L135.731 76.8799C135.395 77.2719 134.97 77.5752 134.457 77.7899C133.953 77.9952 133.374 78.0979 132.721 78.0979Z" fill="#3E4AB8"/>
<path d="M146.545 78.1399C145.779 78.1399 145.075 78.0139 144.431 77.7619C143.787 77.5099 143.227 77.1599 142.751 76.7119C142.275 76.2546 141.906 75.7226 141.645 75.1159C141.383 74.4999 141.253 73.8279 141.253 73.0999C141.253 72.3719 141.383 71.7046 141.645 71.0979C141.906 70.4819 142.275 69.9499 142.751 69.5019C143.227 69.0446 143.787 68.6899 144.431 68.4379C145.075 68.1859 145.775 68.0599 146.531 68.0599C147.296 68.0599 147.996 68.1859 148.631 68.4379C149.275 68.6899 149.835 69.0446 150.311 69.5019C150.787 69.9499 151.155 70.4819 151.417 71.0979C151.678 71.7046 151.809 72.3719 151.809 73.0999C151.809 73.8279 151.678 74.4999 151.417 75.1159C151.155 75.7319 150.787 76.2639 150.311 76.7119C149.835 77.1599 149.275 77.5099 148.631 77.7619C147.996 78.0139 147.301 78.1399 146.545 78.1399ZM146.531 76.5439C147.025 76.5439 147.483 76.4599 147.903 76.2919C148.323 76.1239 148.687 75.8859 148.995 75.5779C149.303 75.2606 149.541 74.8966 149.709 74.4859C149.886 74.0659 149.975 73.6039 149.975 73.0999C149.975 72.5959 149.886 72.1386 149.709 71.7279C149.541 71.3079 149.303 70.9439 148.995 70.6359C148.687 70.3186 148.323 70.0759 147.903 69.9079C147.483 69.7399 147.025 69.6559 146.531 69.6559C146.036 69.6559 145.579 69.7399 145.159 69.9079C144.748 70.0759 144.384 70.3186 144.067 70.6359C143.759 70.9439 143.516 71.3079 143.339 71.7279C143.171 72.1386 143.087 72.5959 143.087 73.0999C143.087 73.5946 143.171 74.0519 143.339 74.4719C143.516 74.8919 143.759 75.2606 144.067 75.5779C144.375 75.8859 144.739 76.1239 145.159 76.2919C145.579 76.4599 146.036 76.5439 146.531 76.5439Z" fill="#3E4AB8"/>
<path d="M157.714 78.0979C157.107 78.0979 156.552 77.9579 156.048 77.6779C155.553 77.3979 155.157 76.9779 154.858 76.4179C154.569 75.8486 154.424 75.1299 154.424 74.2619C154.424 73.3846 154.564 72.6659 154.844 72.1059C155.133 71.5459 155.525 71.1306 156.02 70.8599C156.515 70.5799 157.079 70.4399 157.714 70.4399C158.451 70.4399 159.1 70.5986 159.66 70.9159C160.229 71.2332 160.677 71.6766 161.004 72.2459C161.34 72.8152 161.508 73.4872 161.508 74.2619C161.508 75.0366 161.34 75.7132 161.004 76.2919C160.677 76.8612 160.229 77.3046 159.66 77.6219C159.1 77.9392 158.451 78.0979 157.714 78.0979ZM153.57 80.7159V70.5239H155.236V72.2879L155.18 74.2759L155.32 76.2639V80.7159H153.57ZM157.518 76.5999C157.938 76.5999 158.311 76.5066 158.638 76.3199C158.974 76.1332 159.24 75.8626 159.436 75.5079C159.632 75.1532 159.73 74.7379 159.73 74.2619C159.73 73.7766 159.632 73.3612 159.436 73.0159C159.24 72.6612 158.974 72.3906 158.638 72.2039C158.311 72.0172 157.938 71.9239 157.518 71.9239C157.098 71.9239 156.72 72.0172 156.384 72.2039C156.048 72.3906 155.782 72.6612 155.586 73.0159C155.39 73.3612 155.292 73.7766 155.292 74.2619C155.292 74.7379 155.39 75.1532 155.586 75.5079C155.782 75.8626 156.048 76.1332 156.384 76.3199C156.72 76.5066 157.098 76.5999 157.518 76.5999Z" fill="#3E4AB8"/>
<path d="M167.312 78.0979C166.705 78.0979 166.15 77.9579 165.646 77.6779C165.151 77.3979 164.754 76.9779 164.456 76.4179C164.166 75.8486 164.022 75.1299 164.022 74.2619C164.022 73.3846 164.162 72.6659 164.442 72.1059C164.731 71.5459 165.123 71.1306 165.618 70.8599C166.112 70.5799 166.677 70.4399 167.312 70.4399C168.049 70.4399 168.698 70.5986 169.258 70.9159C169.827 71.2332 170.275 71.6766 170.602 72.2459C170.938 72.8152 171.106 73.4872 171.106 74.2619C171.106 75.0366 170.938 75.7132 170.602 76.2919C170.275 76.8612 169.827 77.3046 169.258 77.6219C168.698 77.9392 168.049 78.0979 167.312 78.0979ZM163.168 80.7159V70.5239H164.834V72.2879L164.778 74.2759L164.918 76.2639V80.7159H163.168ZM167.116 76.5999C167.536 76.5999 167.909 76.5066 168.236 76.3199C168.572 76.1332 168.838 75.8626 169.034 75.5079C169.23 75.1532 169.328 74.7379 169.328 74.2619C169.328 73.7766 169.23 73.3612 169.034 73.0159C168.838 72.6612 168.572 72.3906 168.236 72.2039C167.909 72.0172 167.536 71.9239 167.116 71.9239C166.696 71.9239 166.318 72.0172 165.982 72.2039C165.646 72.3906 165.38 72.6612 165.184 73.0159C164.988 73.3612 164.89 73.7766 164.89 74.2619C164.89 74.7379 164.988 75.1532 165.184 75.5079C165.38 75.8626 165.646 76.1332 165.982 76.3199C166.318 76.5066 166.696 76.5999 167.116 76.5999Z" fill="#3E4AB8"/>
<path d="M176.125 78.0979C175.36 78.0979 174.679 77.9346 174.081 77.6079C173.484 77.2719 173.013 76.8146 172.667 76.2359C172.322 75.6572 172.149 74.9992 172.149 74.2619C172.149 73.5152 172.322 72.8572 172.667 72.2879C173.013 71.7092 173.484 71.2566 174.081 70.9299C174.679 70.6032 175.36 70.4399 176.125 70.4399C176.9 70.4399 177.586 70.6032 178.183 70.9299C178.79 71.2566 179.261 71.7046 179.597 72.2739C179.943 72.8432 180.115 73.5059 180.115 74.2619C180.115 74.9992 179.943 75.6572 179.597 76.2359C179.261 76.8146 178.79 77.2719 178.183 77.6079C177.586 77.9346 176.9 78.0979 176.125 78.0979ZM176.125 76.5999C176.555 76.5999 176.937 76.5066 177.273 76.3199C177.609 76.1332 177.871 75.8626 178.057 75.5079C178.253 75.1532 178.351 74.7379 178.351 74.2619C178.351 73.7766 178.253 73.3612 178.057 73.0159C177.871 72.6612 177.609 72.3906 177.273 72.2039C176.937 72.0172 176.559 71.9239 176.139 71.9239C175.71 71.9239 175.327 72.0172 174.991 72.2039C174.665 72.3906 174.403 72.6612 174.207 73.0159C174.011 73.3612 173.913 73.7766 173.913 74.2619C173.913 74.7379 174.011 75.1532 174.207 75.5079C174.403 75.8626 174.665 76.1332 174.991 76.3199C175.327 76.5066 175.705 76.5999 176.125 76.5999Z" fill="#3E4AB8"/>
<path d="M181.789 77.9999V70.5239H183.455V72.5819L183.259 71.9799C183.483 71.4759 183.833 71.0932 184.309 70.8319C184.794 70.5706 185.396 70.4399 186.115 70.4399V72.1059C186.04 72.0872 185.97 72.0779 185.905 72.0779C185.839 72.0686 185.774 72.0639 185.709 72.0639C185.046 72.0639 184.519 72.2599 184.127 72.6519C183.735 73.0346 183.539 73.6086 183.539 74.3739V77.9999H181.789Z" fill="#3E4AB8"/>
<path d="M190.687 78.0979C189.865 78.0979 189.231 77.8879 188.783 77.4679C188.335 77.0386 188.111 76.4086 188.111 75.5779V68.8719H189.861V75.5359C189.861 75.8906 189.949 76.1659 190.127 76.3619C190.313 76.5579 190.57 76.6559 190.897 76.6559C191.289 76.6559 191.615 76.5532 191.877 76.3479L192.367 77.5939C192.161 77.7619 191.909 77.8879 191.611 77.9719C191.312 78.0559 191.004 78.0979 190.687 78.0979ZM186.879 71.9799V70.5799H191.863V71.9799H186.879Z" fill="#3E4AB8"/>
<path d="M196.97 78.0979C196.336 78.0979 195.776 77.9812 195.29 77.7479C194.805 77.5052 194.427 77.1412 194.156 76.6559C193.886 76.1612 193.75 75.5406 193.75 74.7939V70.5239H195.5V74.5559C195.5 75.2279 195.65 75.7319 195.948 76.0679C196.256 76.3946 196.69 76.5579 197.25 76.5579C197.661 76.5579 198.016 76.4739 198.314 76.3059C198.622 76.1379 198.86 75.8859 199.028 75.5499C199.206 75.2139 199.294 74.7986 199.294 74.3039V70.5239H201.044V77.9999H199.378V75.9839L199.672 76.5999C199.42 77.0852 199.052 77.4586 198.566 77.7199C198.081 77.9719 197.549 78.0979 196.97 78.0979Z" fill="#3E4AB8"/>
<path d="M207.577 70.4399C208.175 70.4399 208.707 70.5566 209.174 70.7899C209.65 71.0232 210.023 71.3826 210.294 71.8679C210.564 72.3439 210.7 72.9599 210.7 73.7159V77.9999H208.95V73.9399C208.95 73.2772 208.791 72.7826 208.473 72.4559C208.165 72.1292 207.732 71.9659 207.172 71.9659C206.761 71.9659 206.397 72.0499 206.079 72.2179C205.762 72.3859 205.515 72.6379 205.338 72.9739C205.17 73.3006 205.085 73.7159 205.085 74.2199V77.9999H203.335V70.5239H205.001V72.5399L204.707 71.9239C204.969 71.4479 205.347 71.0839 205.841 70.8319C206.345 70.5706 206.924 70.4399 207.577 70.4399Z" fill="#3E4AB8"/>
<path d="M212.919 77.9999V70.5239H214.669V77.9999H212.919ZM213.801 69.2919C213.475 69.2919 213.204 69.1892 212.989 68.9839C212.784 68.7786 212.681 68.5312 212.681 68.2419C212.681 67.9432 212.784 67.6959 212.989 67.4999C213.204 67.2946 213.475 67.1919 213.801 67.1919C214.128 67.1919 214.394 67.2899 214.599 67.4859C214.814 67.6726 214.921 67.9106 214.921 68.1999C214.921 68.5079 214.819 68.7692 214.613 68.9839C214.408 69.1892 214.137 69.2919 213.801 69.2919Z" fill="#3E4AB8"/>
<path d="M219.78 78.0979C218.959 78.0979 218.324 77.8879 217.876 77.4679C217.428 77.0386 217.204 76.4086 217.204 75.5779V68.8719H218.954V75.5359C218.954 75.8906 219.043 76.1659 219.22 76.3619C219.407 76.5579 219.664 76.6559 219.99 76.6559C220.382 76.6559 220.709 76.5532 220.97 76.3479L221.46 77.5939C221.255 77.7619 221.003 77.8879 220.704 77.9719C220.406 78.0559 220.098 78.0979 219.78 78.0979ZM215.972 71.9799V70.5799H220.956V71.9799H215.972Z" fill="#3E4AB8"/>
<path d="M222.9 77.9999V70.5239H224.65V77.9999H222.9ZM223.782 69.2919C223.455 69.2919 223.185 69.1892 222.97 68.9839C222.765 68.7786 222.662 68.5312 222.662 68.2419C222.662 67.9432 222.765 67.6959 222.97 67.4999C223.185 67.2946 223.455 67.1919 223.782 67.1919C224.109 67.1919 224.375 67.2899 224.58 67.4859C224.795 67.6726 224.902 67.9106 224.902 68.1999C224.902 68.5079 224.799 68.7692 224.594 68.9839C224.389 69.1892 224.118 69.2919 223.782 69.2919Z" fill="#3E4AB8"/>
<path d="M230.461 78.0979C229.63 78.0979 228.902 77.9346 228.277 77.6079C227.661 77.2719 227.18 76.8146 226.835 76.2359C226.499 75.6572 226.331 74.9992 226.331 74.2619C226.331 73.5152 226.494 72.8572 226.821 72.2879C227.157 71.7092 227.614 71.2566 228.193 70.9299C228.781 70.6032 229.448 70.4399 230.195 70.4399C230.923 70.4399 231.571 70.5986 232.141 70.9159C232.71 71.2332 233.158 71.6812 233.485 72.2599C233.811 72.8386 233.975 73.5199 233.975 74.3039C233.975 74.3786 233.97 74.4626 233.961 74.5559C233.961 74.6492 233.956 74.7379 233.947 74.8219H227.717V73.6599H233.023L232.337 74.0239C232.346 73.5946 232.257 73.2166 232.071 72.8899C231.884 72.5632 231.627 72.3066 231.301 72.1199C230.983 71.9332 230.615 71.8399 230.195 71.8399C229.765 71.8399 229.387 71.9332 229.061 72.1199C228.743 72.3066 228.491 72.5679 228.305 72.9039C228.127 73.2306 228.039 73.6179 228.039 74.0659V74.3459C228.039 74.7939 228.141 75.1906 228.347 75.5359C228.552 75.8812 228.841 76.1472 229.215 76.3339C229.588 76.5206 230.017 76.6139 230.503 76.6139C230.923 76.6139 231.301 76.5486 231.637 76.4179C231.973 76.2872 232.271 76.0819 232.533 75.8019L233.471 76.8799C233.135 77.2719 232.71 77.5752 232.197 77.7899C231.693 77.9952 231.114 78.0979 230.461 78.0979Z" fill="#3E4AB8"/>
<path d="M237.966 78.0979C237.34 78.0979 236.738 78.0186 236.16 77.8599C235.59 77.6919 235.138 77.4912 234.802 77.2579L235.474 75.9279C235.81 76.1426 236.211 76.3199 236.678 76.4599C237.144 76.5999 237.611 76.6699 238.078 76.6699C238.628 76.6699 239.025 76.5952 239.268 76.4459C239.52 76.2966 239.646 76.0959 239.646 75.8439C239.646 75.6386 239.562 75.4846 239.394 75.3819C239.226 75.2699 239.006 75.1859 238.736 75.1299C238.465 75.0739 238.162 75.0226 237.826 74.9759C237.499 74.9292 237.168 74.8686 236.832 74.7939C236.505 74.7099 236.206 74.5932 235.936 74.4439C235.665 74.2852 235.446 74.0752 235.278 73.8139C235.11 73.5526 235.026 73.2072 235.026 72.7779C235.026 72.3019 235.161 71.8912 235.432 71.5459C235.702 71.1912 236.08 70.9206 236.566 70.7339C237.06 70.5379 237.644 70.4399 238.316 70.4399C238.82 70.4399 239.328 70.4959 239.842 70.6079C240.355 70.7199 240.78 70.8786 241.116 71.0839L240.444 72.4139C240.089 72.1992 239.73 72.0546 239.366 71.9799C239.011 71.8959 238.656 71.8539 238.302 71.8539C237.77 71.8539 237.373 71.9332 237.112 72.0919C236.86 72.2506 236.734 72.4512 236.734 72.6939C236.734 72.9179 236.818 73.0859 236.986 73.1979C237.154 73.3099 237.373 73.3986 237.644 73.4639C237.914 73.5292 238.213 73.5852 238.54 73.6319C238.876 73.6692 239.207 73.7299 239.534 73.8139C239.86 73.8979 240.159 74.0146 240.43 74.1639C240.71 74.3039 240.934 74.5046 241.102 74.7659C241.27 75.0272 241.354 75.3679 241.354 75.7879C241.354 76.2546 241.214 76.6606 240.934 77.0059C240.663 77.3512 240.276 77.6219 239.772 77.8179C239.268 78.0046 238.666 78.0979 237.966 78.0979Z" fill="#3E4AB8"/>
<path d="M246.898 77.9999V68.1999H248.396L252.68 75.3539H251.896L256.11 68.1999H257.608L257.622 77.9999H255.9L255.886 70.9019H256.25L252.666 76.8799H251.854L248.214 70.9019H248.634V77.9999H246.898Z" fill="#3E4AB8"/>
<path d="M263.615 78.0979C262.784 78.0979 262.056 77.9346 261.431 77.6079C260.815 77.2719 260.334 76.8146 259.989 76.2359C259.653 75.6572 259.485 74.9992 259.485 74.2619C259.485 73.5152 259.648 72.8572 259.975 72.2879C260.311 71.7092 260.768 71.2566 261.347 70.9299C261.935 70.6032 262.602 70.4399 263.349 70.4399C264.077 70.4399 264.726 70.5986 265.295 70.9159C265.864 71.2332 266.312 71.6812 266.639 72.2599C266.966 72.8386 267.129 73.5199 267.129 74.3039C267.129 74.3786 267.124 74.4626 267.115 74.5559C267.115 74.6492 267.11 74.7379 267.101 74.8219H260.871V73.6599H266.177L265.491 74.0239C265.5 73.5946 265.412 73.2166 265.225 72.8899C265.038 72.5632 264.782 72.3066 264.455 72.1199C264.138 71.9332 263.769 71.8399 263.349 71.8399C262.92 71.8399 262.542 71.9332 262.215 72.1199C261.898 72.3066 261.646 72.5679 261.459 72.9039C261.282 73.2306 261.193 73.6179 261.193 74.0659V74.3459C261.193 74.7939 261.296 75.1906 261.501 75.5359C261.706 75.8812 261.996 76.1472 262.369 76.3339C262.742 76.5206 263.172 76.6139 263.657 76.6139C264.077 76.6139 264.455 76.5486 264.791 76.4179C265.127 76.2872 265.426 76.0819 265.687 75.8019L266.625 76.8799C266.289 77.2719 265.864 77.5752 265.351 77.7899C264.847 77.9952 264.268 78.0979 263.615 78.0979Z" fill="#3E4AB8"/>
<path d="M272.324 78.0979C271.493 78.0979 270.765 77.9346 270.14 77.6079C269.524 77.2719 269.043 76.8146 268.698 76.2359C268.362 75.6572 268.194 74.9992 268.194 74.2619C268.194 73.5152 268.357 72.8572 268.684 72.2879C269.02 71.7092 269.477 71.2566 270.056 70.9299C270.644 70.6032 271.311 70.4399 272.058 70.4399C272.786 70.4399 273.435 70.5986 274.004 70.9159C274.573 71.2332 275.021 71.6812 275.348 72.2599C275.675 72.8386 275.838 73.5199 275.838 74.3039C275.838 74.3786 275.833 74.4626 275.824 74.5559C275.824 74.6492 275.819 74.7379 275.81 74.8219H269.58V73.6599H274.886L274.2 74.0239C274.209 73.5946 274.121 73.2166 273.934 72.8899C273.747 72.5632 273.491 72.3066 273.164 72.1199C272.847 71.9332 272.478 71.8399 272.058 71.8399C271.629 71.8399 271.251 71.9332 270.924 72.1199C270.607 72.3066 270.355 72.5679 270.168 72.9039C269.991 73.2306 269.902 73.6179 269.902 74.0659V74.3459C269.902 74.7939 270.005 75.1906 270.21 75.5359C270.415 75.8812 270.705 76.1472 271.078 76.3339C271.451 76.5206 271.881 76.6139 272.366 76.6139C272.786 76.6139 273.164 76.5486 273.5 76.4179C273.836 76.2872 274.135 76.0819 274.396 75.8019L275.334 76.8799C274.998 77.2719 274.573 77.5752 274.06 77.7899C273.556 77.9952 272.977 78.0979 272.324 78.0979Z" fill="#3E4AB8"/>
<path d="M280.333 78.0979C279.512 78.0979 278.877 77.8879 278.429 77.4679C277.981 77.0386 277.757 76.4086 277.757 75.5779V68.8719H279.507V75.5359C279.507 75.8906 279.596 76.1659 279.773 76.3619C279.96 76.5579 280.216 76.6559 280.543 76.6559C280.935 76.6559 281.262 76.5532 281.523 76.3479L282.013 77.5939C281.808 77.7619 281.556 77.8879 281.257 77.9719C280.958 78.0559 280.65 78.0979 280.333 78.0979ZM276.525 71.9799V70.5799H281.509V71.9799H276.525Z" fill="#3E4AB8"/>
<path d="M292.026 78.1399C291.279 78.1399 290.584 78.0186 289.94 77.7759C289.305 77.5239 288.75 77.1739 288.274 76.7259C287.807 76.2686 287.443 75.7319 287.182 75.1159C286.92 74.4999 286.79 73.8279 286.79 73.0999C286.79 72.3719 286.92 71.6999 287.182 71.0839C287.443 70.4679 287.812 69.9359 288.288 69.4879C288.764 69.0306 289.319 68.6806 289.954 68.4379C290.588 68.1859 291.284 68.0599 292.04 68.0599C292.842 68.0599 293.575 68.1999 294.238 68.4799C294.9 68.7506 295.46 69.1566 295.918 69.6979L294.742 70.8039C294.387 70.4212 293.99 70.1366 293.552 69.9499C293.113 69.7539 292.637 69.6559 292.124 69.6559C291.61 69.6559 291.139 69.7399 290.71 69.9079C290.29 70.0759 289.921 70.3139 289.604 70.6219C289.296 70.9299 289.053 71.2939 288.876 71.7139C288.708 72.1339 288.624 72.5959 288.624 73.0999C288.624 73.6039 288.708 74.0659 288.876 74.4859C289.053 74.9059 289.296 75.2699 289.604 75.5779C289.921 75.8859 290.29 76.1239 290.71 76.2919C291.139 76.4599 291.61 76.5439 292.124 76.5439C292.637 76.5439 293.113 76.4506 293.552 76.2639C293.99 76.0679 294.387 75.7739 294.742 75.3819L295.918 76.5019C295.46 77.0339 294.9 77.4399 294.238 77.7199C293.575 77.9999 292.838 78.1399 292.026 78.1399Z" fill="#3E4AB8"/>
<path d="M300.567 78.0979C299.801 78.0979 299.12 77.9346 298.523 77.6079C297.925 77.2719 297.454 76.8146 297.109 76.2359C296.763 75.6572 296.591 74.9992 296.591 74.2619C296.591 73.5152 296.763 72.8572 297.109 72.2879C297.454 71.7092 297.925 71.2566 298.523 70.9299C299.12 70.6032 299.801 70.4399 300.567 70.4399C301.341 70.4399 302.027 70.6032 302.625 70.9299C303.231 71.2566 303.703 71.7046 304.039 72.2739C304.384 72.8432 304.557 73.5059 304.557 74.2619C304.557 74.9992 304.384 75.6572 304.039 76.2359C303.703 76.8146 303.231 77.2719 302.625 77.6079C302.027 77.9346 301.341 78.0979 300.567 78.0979ZM300.567 76.5999C300.996 76.5999 301.379 76.5066 301.715 76.3199C302.051 76.1332 302.312 75.8626 302.499 75.5079C302.695 75.1532 302.793 74.7379 302.793 74.2619C302.793 73.7766 302.695 73.3612 302.499 73.0159C302.312 72.6612 302.051 72.3906 301.715 72.2039C301.379 72.0172 301.001 71.9239 300.581 71.9239C300.151 71.9239 299.769 72.0172 299.433 72.2039C299.106 72.3906 298.845 72.6612 298.649 73.0159C298.453 73.3612 298.355 73.7766 298.355 74.2619C298.355 74.7379 298.453 75.1532 298.649 75.5079C298.845 75.8626 299.106 76.1332 299.433 76.3199C299.769 76.5066 300.147 76.5999 300.567 76.5999Z" fill="#3E4AB8"/>
<path d="M310.472 70.4399C311.069 70.4399 311.601 70.5566 312.068 70.7899C312.544 71.0232 312.917 71.3826 313.188 71.8679C313.459 72.3439 313.594 72.9599 313.594 73.7159V77.9999H311.844V73.9399C311.844 73.2772 311.685 72.7826 311.368 72.4559C311.06 72.1292 310.626 71.9659 310.066 71.9659C309.655 71.9659 309.291 72.0499 308.974 72.2179C308.657 72.3859 308.409 72.6379 308.232 72.9739C308.064 73.3006 307.98 73.7159 307.98 74.2199V77.9999H306.23V70.5239H307.896V72.5399L307.602 71.9239C307.863 71.4479 308.241 71.0839 308.736 70.8319C309.24 70.5706 309.819 70.4399 310.472 70.4399Z" fill="#3E4AB8"/>
<path d="M320.056 70.4399C320.653 70.4399 321.185 70.5566 321.652 70.7899C322.128 71.0232 322.501 71.3826 322.772 71.8679C323.043 72.3439 323.178 72.9599 323.178 73.7159V77.9999H321.428V73.9399C321.428 73.2772 321.269 72.7826 320.952 72.4559C320.644 72.1292 320.21 71.9659 319.65 71.9659C319.239 71.9659 318.875 72.0499 318.558 72.2179C318.241 72.3859 317.993 72.6379 317.816 72.9739C317.648 73.3006 317.564 73.7159 317.564 74.2199V77.9999H315.814V70.5239H317.48V72.5399L317.186 71.9239C317.447 71.4479 317.825 71.0839 318.32 70.8319C318.824 70.5706 319.403 70.4399 320.056 70.4399Z" fill="#3E4AB8"/>
<path d="M328.926 78.0979C328.095 78.0979 327.367 77.9346 326.742 77.6079C326.126 77.2719 325.645 76.8146 325.3 76.2359C324.964 75.6572 324.796 74.9992 324.796 74.2619C324.796 73.5152 324.959 72.8572 325.286 72.2879C325.622 71.7092 326.079 71.2566 326.658 70.9299C327.246 70.6032 327.913 70.4399 328.66 70.4399C329.388 70.4399 330.036 70.5986 330.606 70.9159C331.175 71.2332 331.623 71.6812 331.95 72.2599C332.276 72.8386 332.44 73.5199 332.44 74.3039C332.44 74.3786 332.435 74.4626 332.426 74.5559C332.426 74.6492 332.421 74.7379 332.412 74.8219H326.182V73.6599H331.488L330.802 74.0239C330.811 73.5946 330.722 73.2166 330.536 72.8899C330.349 72.5632 330.092 72.3066 329.766 72.1199C329.448 71.9332 329.08 71.8399 328.66 71.8399C328.23 71.8399 327.852 71.9332 327.526 72.1199C327.208 72.3066 326.956 72.5679 326.77 72.9039C326.592 73.2306 326.504 73.6179 326.504 74.0659V74.3459C326.504 74.7939 326.606 75.1906 326.812 75.5359C327.017 75.8812 327.306 76.1472 327.68 76.3339C328.053 76.5206 328.482 76.6139 328.968 76.6139C329.388 76.6139 329.766 76.5486 330.102 76.4179C330.438 76.2872 330.736 76.0819 330.998 75.8019L331.936 76.8799C331.6 77.2719 331.175 77.5752 330.662 77.7899C330.158 77.9952 329.579 78.0979 328.926 78.0979Z" fill="#3E4AB8"/>
<path d="M337.551 78.0979C336.767 78.0979 336.067 77.9346 335.451 77.6079C334.844 77.2719 334.368 76.8146 334.023 76.2359C333.677 75.6572 333.505 74.9992 333.505 74.2619C333.505 73.5152 333.677 72.8572 334.023 72.2879C334.368 71.7092 334.844 71.2566 335.451 70.9299C336.067 70.6032 336.767 70.4399 337.551 70.4399C338.279 70.4399 338.918 70.5892 339.469 70.8879C340.029 71.1772 340.453 71.6066 340.743 72.1759L339.399 72.9599C339.175 72.6052 338.899 72.3439 338.573 72.1759C338.255 72.0079 337.91 71.9239 337.537 71.9239C337.107 71.9239 336.72 72.0172 336.375 72.2039C336.029 72.3906 335.759 72.6612 335.563 73.0159C335.367 73.3612 335.269 73.7766 335.269 74.2619C335.269 74.7472 335.367 75.1672 335.563 75.5219C335.759 75.8672 336.029 76.1332 336.375 76.3199C336.72 76.5066 337.107 76.5999 337.537 76.5999C337.91 76.5999 338.255 76.5159 338.573 76.3479C338.899 76.1799 339.175 75.9186 339.399 75.5639L340.743 76.3479C340.453 76.9079 340.029 77.3419 339.469 77.6499C338.918 77.9486 338.279 78.0979 337.551 78.0979Z" fill="#3E4AB8"/>
<path d="M345.165 78.0979C344.344 78.0979 343.709 77.8879 343.261 77.4679C342.813 77.0386 342.589 76.4086 342.589 75.5779V68.8719H344.339V75.5359C344.339 75.8906 344.428 76.1659 344.605 76.3619C344.792 76.5579 345.048 76.6559 345.375 76.6559C345.767 76.6559 346.094 76.5532 346.355 76.3479L346.845 77.5939C346.64 77.7619 346.388 77.8879 346.089 77.9719C345.79 78.0559 345.482 78.0979 345.165 78.0979ZM341.357 71.9799V70.5799H346.341V71.9799H341.357Z" fill="#3E4AB8"/>
<path d="M348.285 77.9999V70.5239H350.035V77.9999H348.285ZM349.167 69.2919C348.84 69.2919 348.569 69.1892 348.355 68.9839C348.149 68.7786 348.047 68.5312 348.047 68.2419C348.047 67.9432 348.149 67.6959 348.355 67.4999C348.569 67.2946 348.84 67.1919 349.167 67.1919C349.493 67.1919 349.759 67.2899 349.965 67.4859C350.179 67.6726 350.287 67.9106 350.287 68.1999C350.287 68.5079 350.184 68.7692 349.979 68.9839C349.773 69.1892 349.503 69.2919 349.167 69.2919Z" fill="#3E4AB8"/>
<path d="M355.692 78.0979C354.926 78.0979 354.245 77.9346 353.648 77.6079C353.05 77.2719 352.579 76.8146 352.234 76.2359C351.888 75.6572 351.716 74.9992 351.716 74.2619C351.716 73.5152 351.888 72.8572 352.234 72.2879C352.579 71.7092 353.05 71.2566 353.648 70.9299C354.245 70.6032 354.926 70.4399 355.692 70.4399C356.466 70.4399 357.152 70.6032 357.75 70.9299C358.356 71.2566 358.828 71.7046 359.164 72.2739C359.509 72.8432 359.682 73.5059 359.682 74.2619C359.682 74.9992 359.509 75.6572 359.164 76.2359C358.828 76.8146 358.356 77.2719 357.75 77.6079C357.152 77.9346 356.466 78.0979 355.692 78.0979ZM355.692 76.5999C356.121 76.5999 356.504 76.5066 356.84 76.3199C357.176 76.1332 357.437 75.8626 357.624 75.5079C357.82 75.1532 357.918 74.7379 357.918 74.2619C357.918 73.7766 357.82 73.3612 357.624 73.0159C357.437 72.6612 357.176 72.3906 356.84 72.2039C356.504 72.0172 356.126 71.9239 355.706 71.9239C355.276 71.9239 354.894 72.0172 354.558 72.2039C354.231 72.3906 353.97 72.6612 353.774 73.0159C353.578 73.3612 353.48 73.7766 353.48 74.2619C353.48 74.7379 353.578 75.1532 353.774 75.5079C353.97 75.8626 354.231 76.1332 354.558 76.3199C354.894 76.5066 355.272 76.5999 355.692 76.5999Z" fill="#3E4AB8"/>
<path d="M365.597 70.4399C366.194 70.4399 366.726 70.5566 367.193 70.7899C367.669 71.0232 368.042 71.3826 368.313 71.8679C368.584 72.3439 368.719 72.9599 368.719 73.7159V77.9999H366.969V73.9399C366.969 73.2772 366.81 72.7826 366.493 72.4559C366.185 72.1292 365.751 71.9659 365.191 71.9659C364.78 71.9659 364.416 72.0499 364.099 72.2179C363.782 72.3859 363.534 72.6379 363.357 72.9739C363.189 73.3006 363.105 73.7159 363.105 74.2199V77.9999H361.355V70.5239H363.021V72.5399L362.727 71.9239C362.988 71.4479 363.366 71.0839 363.861 70.8319C364.365 70.5706 364.944 70.4399 365.597 70.4399Z" fill="#3E4AB8"/>
<path d="M373.249 78.0979C372.624 78.0979 372.022 78.0186 371.443 77.8599C370.874 77.6919 370.421 77.4912 370.085 77.2579L370.757 75.9279C371.093 76.1426 371.494 76.3199 371.961 76.4599C372.428 76.5999 372.894 76.6699 373.361 76.6699C373.912 76.6699 374.308 76.5952 374.551 76.4459C374.803 76.2966 374.929 76.0959 374.929 75.8439C374.929 75.6386 374.845 75.4846 374.677 75.3819C374.509 75.2699 374.29 75.1859 374.019 75.1299C373.748 75.0739 373.445 75.0226 373.109 74.9759C372.782 74.9292 372.451 74.8686 372.115 74.7939C371.788 74.7099 371.49 74.5932 371.219 74.4439C370.948 74.2852 370.729 74.0752 370.561 73.8139C370.393 73.5526 370.309 73.2072 370.309 72.7779C370.309 72.3019 370.444 71.8912 370.715 71.5459C370.986 71.1912 371.364 70.9206 371.849 70.7339C372.344 70.5379 372.927 70.4399 373.599 70.4399C374.103 70.4399 374.612 70.4959 375.125 70.6079C375.638 70.7199 376.063 70.8786 376.399 71.0839L375.727 72.4139C375.372 72.1992 375.013 72.0546 374.649 71.9799C374.294 71.8959 373.94 71.8539 373.585 71.8539C373.053 71.8539 372.656 71.9332 372.395 72.0919C372.143 72.2506 372.017 72.4512 372.017 72.6939C372.017 72.9179 372.101 73.0859 372.269 73.1979C372.437 73.3099 372.656 73.3986 372.927 73.4639C373.198 73.5292 373.496 73.5852 373.823 73.6319C374.159 73.6692 374.49 73.7299 374.817 73.8139C375.144 73.8979 375.442 74.0146 375.713 74.1639C375.993 74.3039 376.217 74.5046 376.385 74.7659C376.553 75.0272 376.637 75.3679 376.637 75.7879C376.637 76.2546 376.497 76.6606 376.217 77.0059C375.946 77.3512 375.559 77.6219 375.055 77.8179C374.551 78.0046 373.949 78.0979 373.249 78.0979Z" fill="#3E4AB8"/>
<path d="M378.704 78.0979C378.387 78.0979 378.116 77.9906 377.892 77.7759C377.668 77.5519 377.556 77.2719 377.556 76.9359C377.556 76.5812 377.668 76.3012 377.892 76.0959C378.116 75.8812 378.387 75.7739 378.704 75.7739C379.021 75.7739 379.292 75.8812 379.516 76.0959C379.74 76.3012 379.852 76.5812 379.852 76.9359C379.852 77.2719 379.74 77.5519 379.516 77.7759C379.292 77.9906 379.021 78.0979 378.704 78.0979Z" fill="#3E4AB8"/>
<path d="M104.76 59.56C102.547 59.56 100.493 59.2133 98.6 58.52C96.7333 57.8 95.1067 56.7867 93.72 55.48C92.36 54.1733 91.2933 52.64 90.52 50.88C89.7467 49.0933 89.36 47.1333 89.36 45C89.36 42.8667 89.7467 40.92 90.52 39.16C91.2933 37.3733 92.36 35.8267 93.72 34.52C95.1067 33.2133 96.7333 32.2133 98.6 31.52C100.493 30.8 102.547 30.44 104.76 30.44C107.347 30.44 109.653 30.8933 111.68 31.8C113.733 32.7067 115.44 34.0133 116.8 35.72L111.76 40.28C110.853 39.2133 109.853 38.4 108.76 37.84C107.693 37.28 106.493 37 105.16 37C104.013 37 102.96 37.1867 102 37.56C101.04 37.9333 100.213 38.48 99.52 39.2C98.8533 39.8933 98.32 40.7333 97.92 41.72C97.5467 42.7067 97.36 43.8 97.36 45C97.36 46.2 97.5467 47.2933 97.92 48.28C98.32 49.2667 98.8533 50.12 99.52 50.84C100.213 51.5333 101.04 52.0667 102 52.44C102.96 52.8133 104.013 53 105.16 53C106.493 53 107.693 52.72 108.76 52.16C109.853 51.6 110.853 50.7867 111.76 49.72L116.8 54.28C115.44 55.96 113.733 57.2667 111.68 58.2C109.653 59.1067 107.347 59.56 104.76 59.56ZM130.148 59.36C127.775 59.36 125.668 58.88 123.828 57.92C121.988 56.96 120.535 55.64 119.468 53.96C118.428 52.2533 117.908 50.3067 117.908 48.12C117.908 45.9333 118.428 44 119.468 42.32C120.535 40.64 121.988 39.3333 123.828 38.4C125.668 37.44 127.775 36.96 130.148 36.96C132.521 36.96 134.628 37.44 136.468 38.4C138.335 39.3333 139.788 40.64 140.828 42.32C141.868 44 142.388 45.9333 142.388 48.12C142.388 50.3067 141.868 52.2533 140.828 53.96C139.788 55.64 138.335 56.96 136.468 57.92C134.628 58.88 132.521 59.36 130.148 59.36ZM130.148 53.32C131.028 53.32 131.801 53.12 132.468 52.72C133.161 52.32 133.708 51.7333 134.108 50.96C134.508 50.16 134.708 49.2133 134.708 48.12C134.708 47.0267 134.508 46.1067 134.108 45.36C133.708 44.5867 133.161 44 132.468 43.6C131.801 43.2 131.028 43 130.148 43C129.295 43 128.521 43.2 127.828 43.6C127.161 44 126.615 44.5867 126.188 45.36C125.788 46.1067 125.588 47.0267 125.588 48.12C125.588 49.2133 125.788 50.16 126.188 50.96C126.615 51.7333 127.161 52.32 127.828 52.72C128.521 53.12 129.295 53.32 130.148 53.32ZM160.029 36.96C161.709 36.96 163.229 37.3067 164.589 38C165.949 38.6667 167.015 39.7067 167.789 41.12C168.589 42.5333 168.989 44.36 168.989 46.6V59H161.389V47.84C161.389 46.2933 161.069 45.1733 160.429 44.48C159.815 43.76 158.949 43.4 157.829 43.4C157.029 43.4 156.295 43.5867 155.629 43.96C154.962 44.3067 154.442 44.8533 154.069 45.6C153.695 46.3467 153.509 47.32 153.509 48.52V59H145.909V37.32H153.149V43.48L151.749 41.68C152.575 40.1067 153.709 38.9333 155.149 38.16C156.589 37.36 158.215 36.96 160.029 36.96ZM187.88 36.96C189.56 36.96 191.08 37.3067 192.44 38C193.8 38.6667 194.867 39.7067 195.64 41.12C196.44 42.5333 196.84 44.36 196.84 46.6V59H189.24V47.84C189.24 46.2933 188.92 45.1733 188.28 44.48C187.667 43.76 186.8 43.4 185.68 43.4C184.88 43.4 184.147 43.5867 183.48 43.96C182.814 44.3067 182.294 44.8533 181.92 45.6C181.547 46.3467 181.36 47.32 181.36 48.52V59H173.76V37.32H181V43.48L179.6 41.68C180.427 40.1067 181.56 38.9333 183 38.16C184.44 37.36 186.067 36.96 187.88 36.96ZM213.245 59.36C210.685 59.36 208.445 58.88 206.525 57.92C204.632 56.9333 203.152 55.6 202.085 53.92C201.045 52.2133 200.525 50.28 200.525 48.12C200.525 45.96 201.032 44.04 202.045 42.36C203.085 40.6533 204.512 39.3333 206.325 38.4C208.139 37.44 210.179 36.96 212.445 36.96C214.579 36.96 216.525 37.4 218.285 38.28C220.045 39.1333 221.445 40.4 222.485 42.08C223.525 43.76 224.045 45.8 224.045 48.2C224.045 48.4667 224.032 48.7733 224.005 49.12C223.979 49.4667 223.952 49.7867 223.925 50.08H206.765V46.08H219.885L217.005 47.2C217.032 46.2133 216.845 45.36 216.445 44.64C216.072 43.92 215.539 43.36 214.845 42.96C214.179 42.56 213.392 42.36 212.485 42.36C211.579 42.36 210.779 42.56 210.085 42.96C209.419 43.36 208.899 43.9333 208.525 44.68C208.152 45.4 207.965 46.2533 207.965 47.24V48.4C207.965 49.4667 208.179 50.3867 208.605 51.16C209.059 51.9333 209.699 52.5333 210.525 52.96C211.352 53.36 212.339 53.56 213.485 53.56C214.552 53.56 215.459 53.4133 216.205 53.12C216.979 52.8 217.739 52.32 218.485 51.68L222.485 55.84C221.445 56.9867 220.165 57.8667 218.645 58.48C217.125 59.0667 215.325 59.36 213.245 59.36ZM238.629 59.36C236.229 59.36 234.083 58.88 232.189 57.92C230.323 56.96 228.856 55.64 227.789 53.96C226.723 52.2533 226.189 50.3067 226.189 48.12C226.189 45.9333 226.723 44 227.789 42.32C228.856 40.64 230.323 39.3333 232.189 38.4C234.083 37.44 236.229 36.96 238.629 36.96C241.083 36.96 243.203 37.48 244.989 38.52C246.776 39.56 248.043 41.0267 248.789 42.92L242.909 45.92C242.403 44.9067 241.776 44.1733 241.029 43.72C240.283 43.24 239.469 43 238.589 43C237.709 43 236.909 43.2 236.189 43.6C235.469 44 234.896 44.5867 234.469 45.36C234.069 46.1067 233.869 47.0267 233.869 48.12C233.869 49.24 234.069 50.1867 234.469 50.96C234.896 51.7333 235.469 52.32 236.189 52.72C236.909 53.12 237.709 53.32 238.589 53.32C239.469 53.32 240.283 53.0933 241.029 52.64C241.776 52.16 242.403 51.4133 242.909 50.4L248.789 53.4C248.043 55.2933 246.776 56.76 244.989 57.8C243.203 58.84 241.083 59.36 238.629 59.36ZM261.683 59.36C258.909 59.36 256.749 58.68 255.203 57.32C253.656 55.9333 252.883 53.8533 252.883 51.08V32.48H260.483V51C260.483 51.7733 260.696 52.3867 261.123 52.84C261.549 53.2667 262.096 53.48 262.763 53.48C263.669 53.48 264.443 53.2533 265.083 52.8L266.963 58.12C266.323 58.5467 265.536 58.8533 264.603 59.04C263.669 59.2533 262.696 59.36 261.683 59.36ZM249.723 43.8V38.12H265.443V43.8H249.723ZM269.893 59V37.32H277.493V59H269.893ZM273.693 34.92C272.306 34.92 271.186 34.5333 270.333 33.76C269.48 32.9867 269.053 32.0267 269.053 30.88C269.053 29.7333 269.48 28.7733 270.333 28C271.186 27.2267 272.306 26.84 273.693 26.84C275.08 26.84 276.2 27.2133 277.053 27.96C277.906 28.68 278.333 29.6133 278.333 30.76C278.333 31.96 277.906 32.96 277.053 33.76C276.226 34.5333 275.106 34.92 273.693 34.92ZM283.312 59V37.56C283.312 34.9467 284.086 32.8667 285.632 31.32C287.206 29.7467 289.446 28.96 292.352 28.96C293.286 28.96 294.206 29.0533 295.112 29.24C296.019 29.4267 296.779 29.7067 297.392 30.08L295.512 35.44C295.192 35.2533 294.832 35.1067 294.432 35C294.032 34.8667 293.632 34.8 293.232 34.8C292.432 34.8 291.806 35.04 291.352 35.52C290.926 35.9733 290.712 36.68 290.712 37.64V39.2L290.912 42.36V59H283.312ZM280.152 43.8V38.12H295.872V43.8H280.152ZM302.793 67.12C301.646 67.12 300.486 66.9333 299.313 66.56C298.166 66.2133 297.233 65.7467 296.513 65.16L299.153 59.84C299.606 60.24 300.126 60.5467 300.713 60.76C301.326 61 301.926 61.12 302.513 61.12C303.339 61.12 303.993 60.9333 304.473 60.56C304.953 60.1867 305.366 59.6 305.713 58.8L306.713 56.28L307.313 55.52L314.673 37.32H321.913L312.553 59.88C311.806 61.7467 310.939 63.2 309.953 64.24C308.993 65.3067 307.913 66.0533 306.713 66.48C305.539 66.9067 304.233 67.12 302.793 67.12ZM305.753 59.92L296.193 37.32H303.993L311.033 54.84L305.753 59.92Z" fill="#3E4AB8"/>
</svg>
